#!OML:ASF E:/inclinewalkrobotboard/Project1/Captureday1/Session1/subject1.ASF
:FULLY-SPECIFIED
:DEGREES
13
root 0 0 0 1.8861602474555934 -10.625694776253189 0.3797094364511076
lowerback 0.5727542858991517 -1.8343383176315444 -2.212041859455494
upperback 0.25379905778330947 -2.3740955273651796 1.5352243642734242
thorax 0.1475938973919788 -1.2243931536768375 2.7545969622862407
lowerneck -21.22366505246561 -0.8271892413876647 -7.658199112362236
upperneck 35.06380073016443 1.3451201370766432 0.438434332393002
head 15.471075149708916 -0.38484040192208857 1.9210690814963873
rclavicle -5.8860104275126595E-15 5.576448967075959E-16
rhumerus -31.8667513787557 -2.6182966130180976 -80.83652873974998
rradius 30.704623661858314
rwrist 18.469310067869344
rhand -18.09574306603295 9.530670555444976
rfingers 7.125019999999962
rthumb 8.179222011578146 -20.28713480350823
lclavicle -3.871332533782318E-15 9.39599993072527E-16
lhumerus -35.788152945917396 -13.88098878171295 99.67877528092735
lradius 59.59814689012742
lwrist 6.8085141659383055
lhand -26.198290401040175 23.77866307882264
lfingers 7.12501999999998
lthumb 0.4059904339791185 53.946938357911634
rfemur -12.710205602084484 1.4540209968386986 24.045670372373266
rtibia 66.38404135105506
rfoot 5.890892630159273 -2.8795916805818926
rtoes 11.652855726611723
lfemur -16.94820764027435 -3.235408089908117 -20.2386428660343
ltibia 28.43935903433205
lfoot -5.2361567321664895 -1.6558190780307913
ltoes 7.572796078278042
14
root 0 0 0 1.890791932383998 -10.622539058413842 0.3868290891435779
lowerback 0.5815679168749859 -1.8376770665082636 -2.212232921951736
upperback 0.2618884992988325 -2.378619729699126 1.5393344016601267
thorax 0.15188065121367766 -1.2268239602328928 2.759061153800386
lowerneck -21.30351938839435 -0.8371106614103354 -7.652322573567069
upperneck 34.91570323645152 1.331030967155479 0.4561658592213269
head 15.428463182990015 -0.38338130374699664 1.9219804853668792
rclavicle -3.9485672998862556E-15 9.86805038400688E-16
rhumerus -32.18392933176561 -3.7804923939377795 -80.63828354016083
rradius 30.447291939944275
rwrist 18.668955917788097
rhand -17.84497641626574 9.550102174829142
rfingers 7.125019999999958
rthumb 8.419882370131571 -20.25835829668973
lclavicle -3.868475570851893E-15 1.624162352279275E-15
lhumerus -35.76744030425831 -14.558538470090546 99.38137842981943
lradius 59.86040354692473
lwrist 7.089476667841478
lhand -26.089305719862814 24.116427175137623
lfingers 7.125019999999975
lthumb 0.5072038716949754 54.29280513014999
rfemur -19.488661593097785 0.2859148656731154 21.336789910096332
rtibia 70.28502161361357
rfoot 2.8500270521636626 -4.960226101713987
rtoes 10.660948500174895
lfemur -10.039221245667264 -2.8960079128966103 -24.85848930330085
ltibia 25.673561984693208
lfoot -10.715489523141763 -0.30440045674672556
ltoes 8.698356153447605
15
root 0 0 0 1.9050587796572311 -10.632340798518246 0.39886147046716486
lowerback 0.5591167814857716 -1.8431822948117405 -2.22596030863039
upperback 0.2617511653111041 -2.387301117281109 1.542684308375668
thorax 0.16488344567781765 -1.2303044432926238 2.770449426347036
lowerneck -21.357141853016557 -0.8400829655282483 -7.669627808369879
upperneck 34.81316234583173 1.329001255509559 0.4867974888795219
head 15.40019417500223 -0.37880313492621476 1.9334965121592496
rclavicle -2.504273945295469E-15 1.2088501761687671E-15
rhumerus -32.43421165008651 -4.4969184609335935 -80.48857149687244
rradius 30.272906849853214
rwrist 18.88827831242937
rhand -17.670320198960063 9.493693417078042
rfingers 7.125019999999958
rthumb 8.586977185088063 -20.3111657575729
lclavicle -3.796557813363997E-15 2.3179310784654553E-15
lhumerus -35.527011790044604 -15.291862737772274 98.93596084138
lradius 60.33143408485513
lwrist 7.32292564307682
lhand -26.033385248207566 24.4957505823115
lfingers 7.125019999999971
lthumb 0.5530463117098172 54.678302177824776
rfemur -25.183277118994713 -0.5518505169346746 19.01138708080399
rtibia 69.7620487862786
rfoot -0.5083041900552008 -5.824595569146281
rtoes 7.087427834301878
lfemur -3.485357790263204 -2.761819464973078 -28.023142951686683
ltibia 23.05993387979114
lfoot -15.66487307799597 0.514136264328477
ltoes 7.262640145442912
16
root 0 0 0 1.9255994465604604 -10.653569204512978 0.41664560892773966
lowerback 0.5189418267276378 -1.8515251114435207 -2.2473428575328183
upperback 0.25736767499824353 -2.4004555950650746 1.54715481406746
thorax 0.18377555915617316 -1.235587436843809 2.7875263529998437
lowerneck -21.426902036480783 -0.840589937458421 -7.696797903364564
upperneck 34.70397122303381 1.3338823768502623 0.5238199437699791
head 15.37292552562922 -0.3712679983763 1.949838021862697
rclavicle -1.8237223604779783E-15 1.0694773056710633E-15
rhumerus -32.579487038016865 -4.763647046302408 -80.3943536476011
rradius 30.184755948484643
rwrist 19.051708763080264
rhand -17.5887646937095 9.420899749973351
rfingers 7.125019999999959
rthumb 8.664428908467011 -20.389089625299505
lclavicle -3.829156195719124E-15 2.6454932756321463E-15
lhumerus -35.21665730964959 -15.869471160666674 98.54124643176938
lradius 60.82414224682119
lwrist 7.455669200463943
lhand -26.033264867629157 24.776823582548815
lfingers 7.125019999999968
lthumb 0.545671663238446 54.96321189969824
rfemur -28.35390452118415 -0.6264004721004692 17.94603442697632
rtibia 65.95808369812273
rfoot -2.5208893157852277 -6.635878787579792
rtoes 4.127726314797714
lfemur 0.7595797905236714 -2.460511814616774 -29.560472910069286
ltibia 22.558694862329073
lfoot -18.39894619844426 0.3310576428421115
ltoes 5.186019289356171
17
root 0 0 0 1.9438015663804893 -10.671958150687319 0.4382060211685652
lowerback 0.4927602685201591 -1.8611406625843285 -2.2651321258301045
upperback 0.25645032172737403 -2.414794066446301 1.5555235316577247
thorax 0.19912868893843272 -1.2418561618607948 2.806658145192356
lowerneck -21.561496414968847 -0.8465328707539623 -7.709343806399565
upperneck 34.48713317521224 1.3327402332028238 0.5619207160889292
head 15.31516721548655 -0.36182574224700503 1.961880955929085
rclavicle -6.91062621305053E-16 4.333175638763091E-16
rhumerus -32.672605182913294 -4.953902566401569 -80.28776337204435
rradius 30.0906663412755
rwrist 19.10231072441683
rhand -17.54159816664456 9.430741867070235
rfingers 7.125019999999959
rthumb 8.708717210166947 -20.38939033035061
lclavicle -3.257391887033954E-15 2.740935458957189E-15
lhumerus -34.81828773515559 -16.47270209922787 98.04922332901813
lradius 61.36425406366753
lwrist 7.612285505480969
lhand -26.01711807436716 25.104401759772184
lfingers 7.125019999999965
lthumb 0.5526135162094112 55.29541275498902
rfemur -31.41104180894191 0.5855827624270642 17.867017511405745
rtibia 53.33852213337858
rfoot -4.255841552115937 -8.818366571655732
rtoes 0.7138566216961246
lfemur 3.3290937941484002 -2.1175053287028405 -30.205585209339024
ltibia 23.26937535448697
lfoot -19.24302768432519 -0.376571430793355
ltoes 3.403569438808548
18
root 0 0 0 1.9463937991028595 -10.669691862253384 0.4477838621259604
lowerback 0.503226559264196 -1.8643790688841158 -2.265936514907871
upperback 0.26102248211952894 -2.4189765247780026 1.5621063078327508
thorax 0.19909798948645907 -1.2440659498699396 2.8141714702939153
lowerneck -21.666950783684115 -0.8563121161220533 -7.697590644787309
upperneck 34.29667456232122 1.32088171353736 0.5791064706553355
head 15.260852670081093 -0.3582497935658503 1.9615277236197899
rclavicle 2.3665936486051524E-16 -2.3943435858197685E-16
rhumerus -32.68022200422902 -4.993499473828768 -80.21920231435433
rradius 30.033589526528637
rwrist 19.036682512541738
rhand -17.54385933271294 9.504818323450774
rfingers 7.125019999999957
rthumb 8.705636494524907 -20.323295809628334
lclavicle -2.7075295465435465E-15 2.6937397575287432E-15
lhumerus -34.6302571425928 -16.746503729319045 97.78922231184042
lradius 61.601443792070626
lwrist 7.703419904862615
lhand -25.9906794921113 25.2786364263063
lfingers 7.125019999999963
lthumb 0.5735738732238449 55.47232820034621
rfemur -33.47875555581866 2.0292454202325194 17.74603830286249
rtibia 41.04644747408706
rfoot -5.454462464213499 -10.806050861323893
rtoes -2.1990236640014222
lfemur 5.53362946147972 -2.179992407757709 -30.332956131694022
ltibia 22.777298950785013
lfoot -19.129689237657708 -1.01709877254024
ltoes 1.3788996663606312
